<svg xmlns="http://www.w3.org/2000/svg" id="&#x421;&#x43B;&#x43E;&#x439;_1" data-name="&#x421;&#x43B;&#x43E;&#x439; 1" viewBox="0 0 202 193"><defs><style>.cls-1{fill:#ced3db;}.cls-1,.cls-2,.cls-3,.cls-4,.cls-5{fill-rule:evenodd;}.cls-2{fill:#fff;}.cls-3{fill:#ffe356;}.cls-4{fill:#fcd34e;}.cls-5{fill:#f2c53f;}</style></defs><title>Coins</title><g id="Layer_1"><g id="_544818040" data-name=" 544818040"><path class="cls-1" d="M179.63,19A8.79,8.79,0,0,1,182,25.1V39.32c0,6.73-4.76,11.21-10.41,14.22,4.66,1.79,9.13,4.38,11.72,8.1a8.88,8.88,0,0,1,2.31,5.93v7.67c5.41,1.79,11,4.52,14,8.95a8.84,8.84,0,0,1,2.26,5.93v14.22c0,8.9-8.29,13.89-16.24,16.81v3.39c0,9.46-9.37,14.55-18,17.42v2.17a18.81,18.81,0,0,1,6.64,5.79,8.72,8.72,0,0,1,2.26,5.89V170c0,21.38-48.21,23.12-62.2,23.12-13.65,0-59.94-1.65-62.1-21.61A59.32,59.32,0,0,1,43.6,57.63V44.92A8.93,8.93,0,0,1,45.86,39c2.64-3.86,7.2-6.4,11.82-8.15v-5.6a8.79,8.79,0,0,1,2.4-6.07c9.7-13.42,46.71-14.6,59.8-14.6s50.1,1.13,59.8,14.6Z"></path><path class="cls-2" d="M175.21,14.6a8.79,8.79,0,0,1,2.4,6.07V34.89c0,6.73-4.76,11.21-10.41,14.22,4.66,1.79,9.13,4.38,11.72,8.1a8.88,8.88,0,0,1,2.31,5.93v7.67c5.41,1.79,11,4.52,14,8.95a8.84,8.84,0,0,1,2.26,5.93V99.91c0,8.9-8.29,13.89-16.24,16.81v3.39c0,9.46-9.37,14.55-18,17.42v2.17a18.81,18.81,0,0,1,6.64,5.79,8.72,8.72,0,0,1,2.26,5.89V165.6c0,21.38-48.21,23.12-62.2,23.12-13.65,0-59.94-1.65-62.1-21.61a59.32,59.32,0,0,1-8.62-113.9V40.49a8.93,8.93,0,0,1,2.26-5.93c2.64-3.86,7.2-6.4,11.82-8.15v-5.6a8.79,8.79,0,0,1,2.4-6.07C65.36,1.32,102.32.14,115.45.14s50.1,1.13,59.8,14.6Z"></path><path class="cls-3" d="M59.42,58.34A50.43,50.43,0,1,1,9,108.77,50.43,50.43,0,0,1,59.42,58.34Z"></path><path class="cls-4" d="M59.42,72.09a36.68,36.68,0,1,1-36.68,36.68A36.69,36.69,0,0,1,59.42,72.09Z"></path><path class="cls-2" d="M72.33,94a14.3,14.3,0,0,0-9-5V83.58H57v5.74c-.42.09-.89.24-1.32.38C44.59,93,47,101.56,47.14,102.93s2.45,4.9,7.53,7.35,10.83,4.47,11.25,6.87-1.65,5.84-6.07,5.41S50.05,118,50.05,118l-4.33,5.13s3.44,4.38,11.25,5.37V134h6.36v-5.51c8.1-1.27,9.32-7.44,9.32-7.44s2.21-6.92-3.3-10.88-13.65-5-15-9,3.06-7.35,7-6.07a23.63,23.63,0,0,1,7.16,4.1L72.28,94Z"></path><path class="cls-5" d="M163.15,165.46c0,7.86-23.87,14.22-53.3,14.22s-53.3-6.36-53.3-14.22V151.24h106.6Z"></path><path class="cls-3" d="M109.85,139.46c29.43,0,53.3,5.84,53.3,13s-23.87,13-53.3,13-53.3-5.79-53.3-13S80.42,139.46,109.85,139.46Z"></path><path class="cls-5" d="M154.25,144.74c0,7.86-23.87,14.22-53.3,14.22s-53.3-6.36-53.3-14.22V130.52h106.6Z"></path><path class="cls-3" d="M101,118.75c29.43,0,53.3,5.79,53.3,13s-23.87,13-53.3,13-53.3-5.79-53.3-13S71.53,118.75,101,118.75Z"></path><path class="cls-5" d="M172.29,120c0,7.86-23.87,14.22-53.3,14.22s-53.3-6.36-53.3-14.22V105.8h106.6Z"></path><path class="cls-3" d="M119,94c29.43,0,53.3,5.84,53.3,13s-23.87,13-53.3,13-53.3-5.79-53.3-13S89.56,94,119,94Z"></path><path class="cls-5" d="M188.58,99.87c0,7.86-23.87,14.22-53.3,14.22S82,107.73,82,99.87V85.65h106.6Z"></path><path class="cls-3" d="M135.28,73.88c29.43,0,53.3,5.79,53.3,13s-23.87,13-53.3,13S82,94.08,82,86.87,105.85,73.88,135.28,73.88Z"></path><path class="cls-5" d="M172.29,77.36c0,7.86-23.87,14.22-53.3,14.22s-53.3-6.36-53.3-14.22V63.14h106.6Z"></path><path class="cls-3" d="M119,51.37c29.43,0,53.3,5.79,53.3,13s-23.87,13-53.3,13-53.3-5.84-53.3-13S89.56,51.37,119,51.37Z"></path><path class="cls-5" d="M154.63,54.52c0,7.86-23.87,14.22-53.3,14.22S48,62.39,48,54.52V40.3h106.6Z"></path><path class="cls-3" d="M101.33,28.53c29.43,0,53.3,5.79,53.3,13s-23.87,13-53.3,13S48,48.73,48,41.53,71.9,28.53,101.33,28.53Z"></path><path class="cls-5" d="M168.71,34.84c0,7.86-23.87,14.22-53.3,14.22s-53.3-6.36-53.3-14.22V20.62h106.6Z"></path><path class="cls-3" d="M115.41,8.9c29.43,0,53.3,5.79,53.3,13s-23.87,13-53.3,13-53.3-5.79-53.3-13S86,8.9,115.41,8.9Z"></path><path class="cls-2" d="M100,29.9a65.56,65.56,0,0,0,10,1.18,58.69,58.69,0,0,0,9.28-.38,30.94,30.94,0,0,0,7.11-1.7,7.12,7.12,0,0,0,3.06-1.93,1.57,1.57,0,0,0,.09-2,5.35,5.35,0,0,0-2.31-1.84c-1.13-.57-2.83-1.27-5-2.12L132.55,17c2.07.89,2.45,1.88,1.08,2.87-1.13.85-.61,1.51,1.55,2a13.88,13.88,0,0,0,3.81.33,10.54,10.54,0,0,0,3.39-.57A3.47,3.47,0,0,0,144,20.43a1.91,1.91,0,0,0,.33-1.6c-.14-.75-.8-1.41-1.93-2A25.29,25.29,0,0,0,137.49,15l2.68-1.08c1.37-.52,1.37-1,0-1.32a7.16,7.16,0,0,0-4.19.33l-2.64,1a60.88,60.88,0,0,0-13.65-1.18A32.07,32.07,0,0,0,109,14.69c-2.21.89-3.39,1.74-3.53,2.59s.38,1.65,1.6,2.4a38.38,38.38,0,0,0,5.32,2.54l-11.58,4.61a4.83,4.83,0,0,1-2.17-1.37,1.06,1.06,0,0,1,0-1.27,9.94,9.94,0,0,1,1.6-1.6c.38-.33.38-.61,0-.89a5,5,0,0,0-2-.8,15.87,15.87,0,0,0-4-.33,10.07,10.07,0,0,0-3.39.57,5.9,5.9,0,0,0-2.4,1.55,1.89,1.89,0,0,0-.38,2,4.83,4.83,0,0,0,2.21,2.17A26.34,26.34,0,0,0,95.68,29h0l-1.55.61c-.89.33-.66.85.52,1.13h0a7.52,7.52,0,0,0,3.72-.14Zm19-10.22,9.56-3.81a47.82,47.82,0,0,0-6-.38,14.41,14.41,0,0,0-4.66.85c-1.32.52-1.84,1-1.51,1.51a6.51,6.51,0,0,0,2.59,1.74Zm-3.2,3.91-10.92,4.33a34.3,34.3,0,0,0,7.16.38,18.84,18.84,0,0,0,5.37-1c1.46-.57,2-1.18,1.6-1.74a8,8,0,0,0-3.2-2Z"></path></g></g></svg>