<svg xmlns="http://www.w3.org/2000/svg" xmlns:xlink="http://www.w3.org/1999/xlink" viewBox="0 0 511.26 718"><defs><style>.cls-1{fill:#aab5ae;}.cls-2{fill:#c0c9c3;}.cls-3{isolation:isolate;}.cls-4{fill:#e4eadf;}.cls-5{fill:#15492a;}.cls-6{fill:#c5ccba;}.cls-7{fill:#acb79e;}.cls-8{fill:#d3ddca;}.cls-9{fill:#c2ccb8;}.cls-10{fill:#cfd6c9;}.cls-11{fill:#7e8e66;}.cls-12{fill:#1b2f35;}.cls-13{fill:#fff;}.cls-14{opacity:0.2;}.cls-15{fill:#1d282e;}.cls-16{fill:#2b434a;}.cls-17{fill:#fcc49a;}.cls-18,.cls-20,.cls-36,.cls-39{mix-blend-mode:multiply;}.cls-19{fill:#f2e6dc;}.cls-20{opacity:0.26;}.cls-21{fill:#1f363d;}.cls-22{fill:#162a2e;}.cls-23{opacity:0.56;}.cls-24{fill:#334f57;}.cls-25{opacity:0.76;}.cls-26{fill:#0d2528;}.cls-27{fill:#eaae86;}.cls-28{fill:#603e2b;}.cls-29{fill:#e2a479;}.cls-30{fill:#3f2615;}.cls-31{opacity:0.3;}.cls-32{fill:#ff8f71;}.cls-33{fill:#3f2919;}.cls-34{opacity:0.44;}.cls-35{fill:#052c35;}.cls-36{opacity:0.25;}.cls-37{fill:#e0a512;}.cls-38{fill:#ba8613;}.cls-39{opacity:0.36;}.cls-40{clip-path:url(#clip-path);}.cls-41{opacity:0.71;}.cls-42{clip-path:url(#clip-path-2);}.cls-43{opacity:0.33;}.cls-44{fill:#f4c9ab;}</style><clipPath id="clip-path"><path class="cls-1" d="M437.54,205.45a3.14,3.14,0,0,1-2.43,3.72l-76.21,12a3.11,3.11,0,1,1-1.34-6.08l76.21-12A3.14,3.14,0,0,1,437.54,205.45Z"></path></clipPath><clipPath id="clip-path-2"><path class="cls-2" d="M433.67,211.74a3.14,3.14,0,0,1-2.92,3.35l-77.14,1.4a3.11,3.11,0,1,1-.48-6.2l77.14-1.4A3.15,3.15,0,0,1,433.67,211.74Z"></path></clipPath></defs><title>money</title><g class="cls-3"><g id="Layer_1" data-name="Layer 1"><g id="_Group_" data-name="&lt;Group&gt;"><path class="cls-4" d="M378.48,124.35s4.62,14.37,21.08,27.89c14.21,11.67,8.85,28.15,8.85,28.15l29.74-11.53S443,153,427.25,135.61a227.61,227.61,0,0,1-19.08-23.87Z"></path></g><path class="cls-5" d="M407.55,115.52s2.77,4.16,7,9.56c6.23,8,13,14,17.94,23,4.67,8.52,3.26,19,3.26,19L411.9,175.6s3.26-13.7-9.45-24.37c-18.18-15.26-20.9-25.66-20.9-25.66Z"></path><path class="cls-4" d="M407,119.37a57.18,57.18,0,0,0,6.53,8.53c5.93,6.36,11.74,12,15.93,19.68,4,7.33,3.92,17,3.92,17l-18.53,6.59a26.1,26.1,0,0,0-9.22-21.48c-17.32-14.64-19.82-22.29-19.82-22.29Z"></path><path class="cls-5" d="M408.93,134.17c-6.86.75-12.35,5.19-8.5,10.72a19.58,19.58,0,0,0,17.67,8.43c7-.73,11.32-5.55,7.36-11.1S415.77,133.42,408.93,134.17Z"></path><path class="cls-5" d="M420.74,157a2.68,2.68,0,0,0-2,3.34,3.72,3.72,0,0,0,5,2.05c1.68-.65,2.42-2.09,1.57-3.68A3.78,3.78,0,0,0,420.74,157Z"></path><path class="cls-5" d="M399.66,127a2.69,2.69,0,0,0-2.05,3.34,3.72,3.72,0,0,0,5,2c1.69-.65,2.42-2.09,1.57-3.68A3.79,3.79,0,0,0,399.66,127Z"></path><path class="cls-4" d="M414.88,144.14a2.94,2.94,0,0,1,.58,2.87,2.81,2.81,0,0,1-2.5,1.45l-.54.05a10.08,10.08,0,0,1-8.28-3.83l-.1-.13-1.74.15L401,142.78l1.74-.16-.2-.29c-1.56-2.21-.65-4.21,2-4.46l1.36,1.92c-1.4.13-1.87,1.18-1.06,2.33l.2.29,5.74-.53a3.23,3.23,0,0,1-.64-3.17,3.17,3.17,0,0,1,2.8-1.62,10.07,10.07,0,0,1,8.26,3.81l1.73-.16,1.35,1.92-1.74.16.31.44c1.56,2.22.65,4.22-2,4.47l-1.35-1.92c1.4-.13,1.88-1.18,1.06-2.34l-.31-.44-5.74.54Zm-3.81,2.45.54,0a1.23,1.23,0,0,0,1-2.1l0-.05-.43-.6-5.77.54.1.14a5.59,5.59,0,0,0,4.6,2.12Zm2-4.93,5.76-.54a5.61,5.61,0,0,0-4.59-2.11,1.52,1.52,0,0,0-1.22,2.6l0,.05Z"></path><g id="_Group_2" data-name="&lt;Group&gt;"><path class="cls-6" d="M3.62,218.73S13.69,229.66,34,234.95c17.53,4.56,19.55,21.51,19.55,21.51l21.81-22.6s-2.26-16.23-23.49-25.22a224,224,0,0,1-26.92-13.45Z"></path></g><path class="cls-5" d="M25.95,198.82s4.19,2.57,10.17,5.68c8.89,4.62,17.45,7.14,25.52,13.1,7.7,5.69,10.75,15.61,10.75,15.61L54.67,250.72s-2.75-13.6-18.52-17.88C13.6,226.72,6.86,218.55,6.86,218.55Z"></path><path class="cls-6" d="M27,202.5a56.29,56.29,0,0,0,9.36,4.93c7.93,3.24,15.46,5.89,22.38,11C65.36,223.33,69.28,232,69.28,232L55.44,245.55a25.7,25.7,0,0,0-17.12-15.39c-21.54-5.92-26.93-11.73-26.93-11.73Z"></path><path class="cls-5" d="M34.89,214.92c-5.82,3.5-8.89,9.74-3.17,13.09a19.27,19.27,0,0,0,19.27.23c5.93-3.53,7.83-9.64,2-13S40.7,211.42,34.89,214.92Z"></path><path class="cls-5" d="M54.9,230.48a2.65,2.65,0,0,0-.45,3.83,3.66,3.66,0,0,0,5.27-.22c1.24-1.27,1.3-2.87-.12-3.93A3.72,3.72,0,0,0,54.9,230.48Z"></path><path class="cls-5" d="M23.62,212.31a2.65,2.65,0,0,0-.45,3.83,3.66,3.66,0,0,0,5.27-.22c1.24-1.28,1.3-2.87-.11-3.94A3.73,3.73,0,0,0,23.62,212.31Z"></path><path class="cls-7" d="M44.33,221.37A2.89,2.89,0,0,1,46,223.69,2.77,2.77,0,0,1,44.41,226l-.46.27a9.92,9.92,0,0,1-9,0l-.14-.08-1.49.86-2-1.16,1.49-.87-.3-.17c-2.31-1.33-2.32-3.5,0-4.84l2,1.16a1.33,1.33,0,0,0,0,2.52l.3.17L39.72,221a3.18,3.18,0,0,1-1.88-2.57,3.12,3.12,0,0,1,1.83-2.6,9.92,9.92,0,0,1,9,0l1.48-.86,2,1.15-1.48.87.46.26c2.31,1.34,2.33,3.5,0,4.84l-2-1.16a1.33,1.33,0,0,0,0-2.52l-.47-.27L43.73,221Zm-2.4,3.76.46-.27a1.22,1.22,0,0,0,0-2.29l-.05,0-.63-.36L36.81,225l.14.08a5.48,5.48,0,0,0,5,0Zm-.23-5.25L46.64,217a5.53,5.53,0,0,0-5,0,1.75,1.75,0,0,0-1,1.44,1.73,1.73,0,0,0,1,1.38l.06,0Z"></path><path class="cls-8" d="M276.71,77.58s-14.07-9-22-29.5c-5.54-19.74-19.88-21.61-19.88-21.61L258,5.1s11.59,5.18,21.57,30.19a177.57,177.57,0,0,0,17.83,27.17Z"></path><path class="cls-5" d="M276.28,74.83S266,68.67,256.76,46.05c-5.2-17.75-15.91-20.16-15.91-20.16L258.53,8.82s6,3.61,11.66,13.82c6.31,10.09,9.75,19.09,15.64,28.38,4.19,5.87,7.64,9.9,7.64,9.9Z"></path><path class="cls-9" d="M275.55,70.92s-7.31-5.11-16.14-26.77c-4.5-14.81-13.21-18.34-13.21-18.34l13.44-13s5,4,9.94,12.57C275.08,34,278.53,42,282.88,50.13a65.85,65.85,0,0,0,6.64,9.19Z"></path><path class="cls-5" d="M275.53,50c-2.81,4.9-9,7.09-13.25,1.14-4-6.25-5-14.34-1.74-20,3.15-5.52,8.89-5.84,12.54,1.13C276.92,38.94,278.26,45.25,275.53,50Z"></path><path class="cls-10" d="M269.26,42.86l-.55-.63,2.18-2.39.42.5c1.11,1.3,1.6,2.8,1.08,3.37l1.89,2.09c1-1.06,0-3.9-2.08-6.39l-.42-.51.65-.69L270.6,36l-.66.71c-2.22-2.78-4.92-4.09-6-2.85-.55.62-.65,1.73-.26,3.13a11.46,11.46,0,0,0,2.3,4.12l-2.24,2.58-.28-.32c-1.12-1.29-1.58-2.87-1-3.52l-1.82-2.21c-1.08,1.26-.22,4.34,1.94,6.8l.28.31-.69.81L264,47.62l.68-.8.14.15c2.38,2.54,5.23,3.53,6.32,2.29l.2-.22a2.66,2.66,0,0,0,.1-2.61A11,11,0,0,0,269.26,42.86Zm-3.7-5.05a1.84,1.84,0,0,1,.13-1.7c.62-.68,2.12,0,3.36,1.54l-2.21,2.43A6.46,6.46,0,0,1,265.56,37.8Zm3.66,9.42c-.61.7-2.19.12-3.5-1.3l-.14-.16,2.23-2.54.58.65a5.29,5.29,0,0,1,1.1,1.79,1.37,1.37,0,0,1-.06,1.33Z"></path><path class="cls-5" d="M279.79,59.68a3.35,3.35,0,0,1-4.39-.26c-1.35-1.43-1.66-3.36-.15-4.63,1.14-.95,2.77-.75,4.1.72S280.79,58.68,279.79,59.68Z"></path><path class="cls-5" d="M260.48,26.72c-.87.93-2.45,1.22-3.8-.35a3.52,3.52,0,0,1,.36-5.14,2.42,2.42,0,0,1,3.6.36A4,4,0,0,1,260.48,26.72Z"></path><g id="_Group_3" data-name="&lt;Group&gt;"><path class="cls-4" d="M231.08,69.2s-8.16,12.19-27.17,20.43c-16.4,7.11-15.81,24-15.81,24L163.4,94.83s-.26-16.18,19.09-28.17a223,223,0,0,0,24.23-17.2Z"></path></g><path class="cls-5" d="M227.89,69.51s-5.33,9-26.41,18.39c-14.74,6.56-15.36,20.25-15.36,20.25L166.19,93.74s1.47-10.14,8.13-16.85c7-7,14.93-10.8,22.9-16.66,5.36-3.93,9.07-7.07,9.07-7.07Z"></path><path class="cls-4" d="M223.46,70.09S219.08,76.57,199,85.62a25.37,25.37,0,0,0-14.37,17.6L169,92.1s2.51-9,8.21-14.82c6-6,12.92-9.78,20.16-14.14a55,55,0,0,0,8.39-6.22Z"></path><path class="cls-5" d="M200,70.23c6.21,2.53,10.14,8.15,5.08,12.29a19,19,0,0,1-18.77,3.14c-6.32-2.54-9.1-8.21-3.9-12.33S193.81,67.69,200,70.23Z"></path><path class="cls-10" d="M194,76.42l-.26.33-5.25-3.81.21-.25c.54-.65,2-.42,3.3.51l.91-1.08c-2.46-1.78-5.31-2.23-6.35-1l-.21.25-1.59-1.17-.9,1.08,1.59,1.16c-1.09,1.36.16,4,2.8,5.94a9.17,9.17,0,0,0,4,1.72A2.89,2.89,0,0,0,195,79.4l5.23,3.78-.13.16c-.54.66-2,.45-3.28-.48l-.89,1.1c2.44,1.76,5.26,2.17,6.29.9l.13-.16,1.58,1.14.89-1.09-1.58-1.14.07-.08c1.12-1.35-.11-4-2.73-5.87l-.49-.35a8.28,8.28,0,0,0-3.55-1.54A2.65,2.65,0,0,0,194,76.42Zm-2.67,1.84a5.14,5.14,0,0,1-2.19-1c-1.46-1.06-2.15-2.53-1.55-3.29l5.27,3.83A1.57,1.57,0,0,1,191.29,78.27Zm8.32.48c1.46,1.05,2.13,2.52,1.52,3.27l-.06.08-5.25-3.8.27-.34a1.29,1.29,0,0,1,1.26-.33,4.1,4.1,0,0,1,1.77.77Z"></path><path class="cls-5" d="M209.46,66.15c1.15.73,2.17,2.81.94,4.07a3.74,3.74,0,0,1-5.1.19c-1.41-1.06-1.71-2.6-.48-3.86A3.67,3.67,0,0,1,209.46,66.15Z"></path><path class="cls-5" d="M182.83,88.44a2.61,2.61,0,0,1,1,3.67,3.61,3.61,0,0,1-5.17.59c-1.4-1.05-1.71-2.6-.48-3.86A3.68,3.68,0,0,1,182.83,88.44Z"></path><g id="_Group_4" data-name="&lt;Group&gt;"><path class="cls-11" d="M318.78,127.94s-1.31-13.94,6.9-34.14c6.66-16.44-4.09-34.58-4.09-34.58l26.77,9.27s8.22,15.41,3.61,38.07c-4.4,18.11-4.26,28.62-4.26,28.62Z"></path></g><path class="cls-5" d="M320.89,125.55S319,116.7,327.8,94c5.8-15-2-30.53-2-30.53L346.93,70s4.87,11.56,4.73,22c-.17,11.18-2.85,19.55-4.38,30.46-1,7.48-1.53,8.29-1.53,8.29Z"></path><path class="cls-7" d="M322.68,122.88s-2.44-6.57,6.56-28c5.75-13.49-.82-28-.82-28,5.56,1.65,12.06,3.49,17.39,5.07,0,0,4,12.18,3.86,21.24-.15,9.65-2,17.87-4,26.71-1.31,6-1.71,7.64-1.71,7.64C337.42,126.09,329.56,124.31,322.68,122.88Z"></path><path class="cls-5" d="M339.53,113c-5.63.68-11.75-3.43-10.86-11s4.84-13,10.45-13.48,10.45,4.33,9.69,11.48S345,112.37,339.53,113Z"></path><path class="cls-7" d="M340.11,101.9c0-.16,0-.32,0-.48l5.06,2.14c0,.12,0,.25,0,.37,0,1-1.48,1.17-2.73.65,0,.54-.34,1.19-.32,1.73,2.38,1,4.23.52,5.09-1.52.17,0,.25.07.25-.05.51.22.45,0,1,.19,0-.54.25-.93.23-1.46-.51-.22-.62-.35-1.13-.57.5-2.83-2.31-5.4-4.63-6a5.61,5.61,0,0,0-3.71,0,1.86,1.86,0,0,0-1.22,2l-5.13-2.17c0-.08,0-.16,0-.24,0-1,1-1.33,2.21-.8a8.21,8.21,0,0,0,.36-2,3.24,3.24,0,0,0-4.66,2c0,.08,0,.16,0,.24-.53-.22-.83-.38-1.36-.6,0,.55-.19,1-.18,1.57l1.58.66s0,.08,0,.11c.05,2,2,5,4.58,6.08l.48.2a3.14,3.14,0,0,0,2.62,0A2.54,2.54,0,0,0,340.11,101.9Zm.56-3.2a3.74,3.74,0,0,1,2.19.15,4.63,4.63,0,0,1,2.71,3.22c-1.69-.72-3.87-1.55-5.57-2.27A1,1,0,0,1,340.68,98.7Zm-5.15,2.92c-1.43-.6-2.64-2-2.67-3.12a.5.5,0,0,0,0-.12l5.16,2.17c0,.18,0,.34,0,.5a.85.85,0,0,1-.57.91,2.06,2.06,0,0,1-1.47-.13Z"></path><path class="cls-5" d="M335.78,123.07a4.31,4.31,0,0,1-3.14-4c0-2.14,1.22-3.67,3.3-3.17a3.83,3.83,0,0,1,2.66,4C338.57,122,337.32,123.27,335.78,123.07Z"></path><path class="cls-5" d="M339.7,83.78a4,4,0,0,1-2.81-3.53c-.26-2.1,1-3.81,2.95-3.18a4,4,0,0,1,2.55,4C342.36,83,341.17,84.08,339.7,83.78Z"></path><g id="_Group_5" data-name="&lt;Group&gt;"><path class="cls-4" d="M120.37,116.64s-.48-15.1-12.59-32.65C97.32,68.84,107,54.45,107,54.45l-31.8,2.89s-9,14,1.31,35a227.17,227.17,0,0,1,11.78,28.23Z"></path></g><path class="cls-5" d="M90,117.12s-1.52-4.76-4.05-11.12C82.14,96.54,77.23,88.91,75,79c-2.14-9.49,2.1-19.15,2.1-19.15l25.27-1.7s-6.92,12.29,2.37,26.06c13.28,19.69,13,30.46,13,30.46Z"></path><path class="cls-4" d="M91.59,113.58a57.12,57.12,0,0,0-3.93-10c-4-7.76-8-14.8-9.91-23.34-1.83-8.15.92-17.42.92-17.42l19.65-1.23a26.12,26.12,0,0,0,3,23.21c12.63,18.86,12.92,26.91,12.92,26.91Z"></path><path class="cls-5" d="M93.78,98.8c6.81,1.17,13.31-1.59,11.14-8a19.58,19.58,0,0,0-14.67-13c-6.9-1.23-12.42,2.21-10.14,8.65S87,97.63,93.78,98.8Z"></path><path class="cls-5" d="M88.72,73.53a2.69,2.69,0,0,0,2.89-2.65,3.73,3.73,0,0,0-4.21-3.34c-1.8.16-2.9,1.34-2.52,3.11A3.79,3.79,0,0,0,88.72,73.53Z"></path><path class="cls-5" d="M100.71,108.29a2.69,2.69,0,0,0,2.89-2.65,3.72,3.72,0,0,0-4.2-3.33c-1.8.16-2.91,1.34-2.53,3.1A3.8,3.8,0,0,0,100.71,108.29Z"></path><path class="cls-4" d="M90.8,87.56A2.93,2.93,0,0,1,91,84.64a2.81,2.81,0,0,1,2.8-.71l.53.09a10.08,10.08,0,0,1,6.91,6l.06.16,1.72.33.77,2.22-1.73-.32.12.33c.89,2.56-.54,4.23-3.19,3.74l-.77-2.22c1.38.26,2.13-.61,1.67-2l-.11-.33-5.68-1.07a3.23,3.23,0,0,1-.26,3.23,3.17,3.17,0,0,1-3.14.78,10.06,10.06,0,0,1-6.91-5.94l-1.71-.32-.77-2.22,1.72.32-.18-.51c-.89-2.56.54-4.24,3.2-3.74l.77,2.22c-1.38-.26-2.13.62-1.66,2l.18.51L91,88.22Zm4.34-1.31-.53-.1a1.24,1.24,0,0,0-1.54,1.76l0,.06.24.69L99,89.73,99,89.57a5.57,5.57,0,0,0-3.84-3.31Zm-3.31,4.19-5.7-1.07A5.61,5.61,0,0,0,90,92.67a1.52,1.52,0,0,0,1.89-2.16s0,0,0-.07Z"></path><g id="_Group_6" data-name="&lt;Group&gt;"><path class="cls-4" d="M38.23,434.93s12.44-6.54,22.21-23.79c8.43-14.9,24.4-12.62,24.4-12.62L69.52,373.08S54.14,371.2,40.76,388.4a211.82,211.82,0,0,1-18.84,21.32Z"></path></g><path class="cls-5" d="M25.49,409.68s3.37-3.2,7.66-7.91c6.38-7,10.78-14.2,18.18-20.12,7.07-5.65,16.87-6,16.87-6l11.69,20.45S66.8,395.28,59,408.64C48,427.75,38.86,431.92,38.86,431.92Z"></path><path class="cls-4" d="M29.11,409.6a53.33,53.33,0,0,0,6.78-7.36c4.88-6.45,9.14-12.69,15.5-17.76,6.08-4.84,14.95-6.31,14.95-6.31l9,15.94A24.3,24.3,0,0,0,57.13,406c-10.65,18.23-17.27,21.75-17.27,21.75Z"></path><path class="cls-5" d="M42.37,405.44c1.78,6.17,6.73,10.49,11.19,6.08A18.23,18.23,0,0,0,58.46,394c-1.78-6.27-6.9-9.5-11.36-5S40.58,399.28,42.37,405.44Z"></path><path class="cls-5" d="M61.45,390.94a2.49,2.49,0,0,0,3.39,1.34,3.46,3.46,0,0,0,1.09-4.87c-.87-1.44-2.31-1.88-3.63-.85A3.52,3.52,0,0,0,61.45,390.94Z"></path><path class="cls-5" d="M37.24,415.09a2.51,2.51,0,0,0,3.39,1.35,3.46,3.46,0,0,0,1.09-4.87c-.87-1.44-2.3-1.89-3.63-.85A3.53,3.53,0,0,0,37.24,415.09Z"></path><path class="cls-4" d="M50.55,398.38a2.74,2.74,0,0,1,2.54-1,2.62,2.62,0,0,1,1.73,2.06l.14.49a9.39,9.39,0,0,1-2.19,8.21l-.11.11.42,1.57-1.54,1.55-.43-1.57-.23.23c-1.78,1.78-3.76,1.27-4.42-1.15L48,407.33a1.26,1.26,0,0,0,2.31.6l.23-.23-1.41-5.18a3,3,0,0,1-2.81,1.09,3,3,0,0,1-1.93-2.31,9.38,9.38,0,0,1,2.17-8.19l-.43-1.56L47.69,390l.43,1.57.36-.36c1.78-1.79,3.77-1.27,4.42,1.15l-1.54,1.55a1.26,1.26,0,0,0-2.31-.6l-.36.36,1.42,5.17Zm2.86,3.1-.13-.48a1.15,1.15,0,0,0-2.09-.58l0,0-.48.49,1.42,5.2.11-.11a5.2,5.2,0,0,0,1.21-4.55Zm-4.85-1.07-1.41-5.2a5.22,5.22,0,0,0-1.2,4.54,1.41,1.41,0,0,0,2.58.7l0,0Z"></path><path class="cls-12" d="M297.45,309.47a10.88,10.88,0,0,1,7.13-4.45,7.61,7.61,0,0,1,2.73.14c10.8,2.53,24.12,20.1,49.77,61.77,19.8,32.17,52.06,33.83,78.07,32.46,2.23-.12,11.73,10.21,1.66,19-18.22,16-81.25-.17-97.79-25.25-12.36-18.75-28.13-48.77-37.73-68.27C298.91,320.08,295.36,312.45,297.45,309.47Z"></path><ellipse class="cls-13" cx="425.27" cy="411.83" rx="12" ry="10.42"></ellipse><g class="cls-14"><ellipse class="cls-12" cx="290.9" cy="689.8" rx="156.56" ry="18.83"></ellipse></g><path class="cls-15" d="M223.72,670.86l-1.9,1.58-13-12.27,4.75-5.35c2.71-3,22.2,23.08,46.09,28.14,0,0,0,4.58,0,4.58s-8.45,0-14.32,0c-5.58-.07-6.68-1.51-8.65-3.27C231.9,680,225,672.34,223.72,670.86Z"></path><path class="cls-16" d="M213.53,654.83c3.45-4.25,9-11.16,11.71-14.6,3.42-3.34,13.35,4.07,16.44,10.25.14.29-3,2.47-3.2,4,1.06,18.79,16.29,17.65,20.56,25.83a8.85,8.85,0,0,1,.52,3.58H244.19a9.39,9.39,0,0,1-5.72-2.43C234,677,213.82,655.39,213.53,654.83Z"></path><path class="cls-15" d="M366.73,684.37l.55,1.86-17.52,5.2-2-6.86c-1.16-3.9,44.95-14.34,53.74-12.43,0,0,1.07,3.62,1.07,3.62l-18,5.33A80.73,80.73,0,0,1,366.73,684.37Z"></path><path class="cls-16" d="M365.66,680.76c-5.94.18-14.07,2.67-17.93,3.81-1.79-5.17-4.06-12-5.57-16.13-1.26-5.7,12-10.73,18.42-5.27,10.29,5.58,31.43.92,37.12,4.18a8.14,8.14,0,0,1,3.77,4.79l-18,5.33A83.78,83.78,0,0,1,365.66,680.76Z"></path><path class="cls-13" d="M340.81,463.34l-86.87,9.13c-11.62-47.92-26.33-94.6-27.52-101.07-5.7-30.86,4.16-49.75,11.86-56.23,12-10.08,31.75-13,31.75-13s19.9-2.93,34.28,3.28c9.23,4,24.12,19.23,27.55,50.43C332.58,362.42,336.52,414.34,340.81,463.34Z"></path><path class="cls-17" d="M284.66,307.35c.87,5.92-2.14,13.94-12.2,15.44s-14.09-5.66-14.94-11.45l-4.08-27.73,27.14-4Z"></path><g class="cls-18"><path class="cls-19" d="M282.47,292.45a38.36,38.36,0,0,1-27.14,4l-1.89-12.83,27.14-4Z"></path></g><path class="cls-12" d="M287,339.07V325.76l-7.58-6-5.53,8,7.78,12.17s6,25.34,8.37,48.17c1.22,11.81,4.2,47.3,4.2,47.3L306.46,453l5.81-21.07s-8.31-35.49-11.21-47.29C295.64,362.64,287,339.07,287,339.07Z"></path><g class="cls-18"><g class="cls-20"><polygon class="cls-21" points="291.31 301.92 284.03 299.43 279.72 320.12 296.4 336 291.31 301.92"></polygon></g><g class="cls-20"><polygon class="cls-21" points="249.75 308.34 256.62 301.81 279.83 320 271.9 344.88 249.75 308.34"></polygon></g></g><polygon class="cls-13" points="291.15 296.13 283.53 293.75 279.49 319.89 295.03 331.63 291.15 296.13"></polygon><polygon class="cls-13" points="248.65 306.63 254.28 299 279.69 319.66 271.3 340.74 248.65 306.63"></polygon><path class="cls-22" d="M335.2,464.88S333,519.35,296.54,585.24c-23.26,42.1-54.84,69.84-54.84,69.84l-19.48-15.79s28.77-29.76,42.55-79.86c11.63-42.29,16.14-94.55,16.14-94.55Z"></path><path class="cls-12" d="M248.05,465l60.71-.16s11.84,53.56,25.81,96.37c13.05,40,29.66,101.22,29.66,101.22l-22.47,9.72s-23.1-59.06-38.46-90c-24-48.28-31.73-56.48-46-83.51A79.36,79.36,0,0,1,248.05,465Z"></path><g class="cls-23"><path class="cls-24" d="M322.68,470.87a2.58,2.58,0,1,1-2.59-2.58A2.59,2.59,0,0,1,322.68,470.87Z"></path></g><g class="cls-25"><polygon class="cls-26" points="335.53 476.01 335.33 477.5 323.73 477.5 323.38 497.89 321.92 477.5 249.63 477.5 249.31 476.01 313.32 476.01 313.32 464.88 315.38 464.88 315.38 476.01 335.53 476.01"></polygon></g><path class="cls-27" d="M304.55,229.92a7.67,7.67,0,0,0-3.08-15l-5.94,1.22a7.67,7.67,0,0,0,3.08,15Z"></path><g class="cls-18"><path class="cls-19" d="M303.61,225.35a3,3,0,0,0-1.21-5.9l-5.94,1.21a3,3,0,1,0,1.21,5.9Z"></path></g><path class="cls-27" d="M225,246.21a7.67,7.67,0,1,0-3.08-15L216,232.41a7.67,7.67,0,0,0,3.08,15Z"></path><g class="cls-18"><path class="cls-19" d="M224,241.65a3,3,0,1,0-1.21-5.9L216.89,237a3,3,0,0,0,1.21,5.9Z"></path></g><path class="cls-17" d="M246.74,165.21c21.3-4.36,41.37,5.78,45.73,27.08l10.11,49.36c4.36,21.3-8.69,45.41-30,49.77s-42.78-12.68-47.14-34l-10.11-49.36C211,186.79,225.45,169.58,246.74,165.21Z"></path><path class="cls-28" d="M229,186.32c15.44-3.16,38.53.93,38.53.93l-4.63-7.87,14.15-2.9c10.23-2.09,12.34,7.55,12.34,7.55l7.73,31.24s-1-28.6-3.18-41.53A62.79,62.79,0,0,0,283.07,148l-10.64,6.92,2.13-5.18c-10.27,2.17-28.72,5.8-41.41,8.48l-5,5.36.66-4.46c-6.68,1.4-12.3,2.52-15.46,3.17-1.59.33-7.43,12.7-3.65,31.17,2,9.53,10.74,39.22,10.74,39.22s-4.43-24.51-4.56-31.56C215.63,188.76,229,186.32,229,186.32Z"></path><path class="cls-29" d="M268.08,240.93s-1.07,1.08-4.8,1.85c-4.52.93-6.35.66-6.35.66s1.88,4.43,6.35,3.56C267.93,246.1,268.49,242.45,268.08,240.93Z"></path><path class="cls-30" d="M245.54,219.47l-12.43-3a1.63,1.63,0,1,1,.75-3.17l12.43,3a1.63,1.63,0,1,1-.75,3.17Z"></path><path class="cls-30" d="M273.25,213.78a1.63,1.63,0,0,1-1.17-3l11.2-6.79a1.63,1.63,0,1,1,1.69,2.78l-11.2,6.79A1.6,1.6,0,0,1,273.25,213.78Z"></path><g class="cls-31"><path class="cls-32" d="M276.64,238.15a4.07,4.07,0,0,0,4.8,3.17l8.77-1.79a4.07,4.07,0,0,0,3.17-4.81h0a4.07,4.07,0,0,0-4.8-3.17l-8.77,1.8a4.07,4.07,0,0,0-3.17,4.8Z"></path></g><g class="cls-31"><path class="cls-32" d="M231.19,247.45a4.07,4.07,0,0,0,4.81,3.17l8.77-1.8a4.07,4.07,0,0,0,3.17-4.81h0a4.07,4.07,0,0,0-4.8-3.17l-8.77,1.8a4.07,4.07,0,0,0-3.17,4.8Z"></path></g><path class="cls-33" d="M236.93,232.7a3.45,3.45,0,0,1-.44-1,4.17,4.17,0,0,1,8.15-1.67,3.67,3.67,0,0,1,0,1.07Z"></path><path class="cls-33" d="M276.14,224.67a3.59,3.59,0,0,1-.43-1,4.17,4.17,0,0,1,8.15-1.67,3.31,3.31,0,0,1,0,1.07Z"></path><g class="cls-34"><path class="cls-13" d="M265.57,220.53c.38-2.12,4.42-3.84,7-4.55,4.85-1.35,15-4,20.58-4.44s5.43,2.31,6,6.07c.52,3.34.77,6.78-5.56,8.91a86.83,86.83,0,0,1-18.31,3.75c-5.12.45-7.11-1.09-8.38-3.24A10.09,10.09,0,0,1,265.57,220.53ZM222.74,226c5.24-1.82,15.68-3.34,20.66-4,2.63-.35,7-.36,8.2,1.44a10.27,10.27,0,0,1,1.39,6.47c-.33,2.48-1.57,4.68-6.44,6.28a86.77,86.77,0,0,1-18.32,3.75c-6.63.53-7.76-2.74-8.61-6C218.66,230.21,217.51,227.75,222.74,226Z"></path></g><path class="cls-35" d="M302.86,209.57a1.61,1.61,0,0,0-1.29-.17,43.62,43.62,0,0,1-4.41.5l-2.56.23c-3,.29-7.4,1-11.82,1.91-4.11.84-7.85,1.77-10.81,2.69a40.78,40.78,0,0,0-7.22,3,22.73,22.73,0,0,1-13.89,2.84,40.86,40.86,0,0,0-7.83.05c-3.07.32-6.87.93-11,1.78-4.42.9-8.77,2-11.63,2.9l-2.46.8a43.44,43.44,0,0,1-4.22,1.27,1.64,1.64,0,0,0-1.13.67,2.33,2.33,0,0,0-.05,1.8l.48,2.3c.25,1.21,1.06,1.39,2.06,1.61.84.19,1.77,1.13,2.62,2.66.08.16.17.33.26.53.92,1.94,2.64,5.56,12.11,4.35,2.86-.37,5.61-.82,8.16-1.35a69.71,69.71,0,0,0,11.7-3.37c3.59-1.43,4.54-4.5,5.38-7.21.73-2.36,1.36-4.4,3.59-4.86s3.62,1.17,5.21,3.06c1.83,2.16,3.91,4.62,7.78,4.52a69.78,69.78,0,0,0,12.09-1.5c2.55-.52,5.26-1.19,8-2,9.2-2.61,9.33-6.62,9.41-8.78,0-.21,0-.4,0-.57.18-1.73.67-3,1.39-3.49s1.48-1.05,1.23-2.27l-.41-2-.06-.34A2.29,2.29,0,0,0,302.86,209.57Zm-4.48,7.25.13.89c.56,3.6.52,6.51-5.28,8.46a76.6,76.6,0,0,1-8.8,2.32A87.46,87.46,0,0,1,275,229.9c-5.18.46-6.91-1.19-8-3a9.78,9.78,0,0,1-1.23-6.21c.32-1.72,3.69-3.4,6.69-4.24,3.59-1,8.86-2.39,13.57-3.36a56.32,56.32,0,0,1,6.92-1.07C297.65,211.64,297.91,213.48,298.38,216.82Zm-47.32,6.84a9.76,9.76,0,0,1,1.32,6.19c-.28,2.13-1.22,4.33-6.17,5.95A88,88,0,0,1,237,238.2a76.4,76.4,0,0,1-9,1.33c-6.09.48-7.27-2.18-8.19-5.7l-.23-.86c-.88-3.26-1.36-5.06,3.1-6.59a55.9,55.9,0,0,1,6.78-1.74c4.71-1,10.1-1.76,13.8-2.25C246.33,222,250.09,222.2,251.06,223.66Z"></path><path class="cls-21" d="M227.37,384.09c7.38,30.94,25.32,108.47,25.32,108.47.48.37,32.14,3.76,44.78,2.94,0,0-7-57.61-12.89-93.83-1.56-9.65-2.88-18.42-4.78-24.4-9.67-30.37-29.71-71.92-29.71-71.92a63.45,63.45,0,0,0-7.77,3.71C233.65,313.92,213.95,327.78,227.37,384.09Z"></path><g class="cls-36"><path class="cls-26" d="M328.51,373.79l6.06,105c-.41.45-4.64,5.53-18.91,6.25,0,0-3.21-52-5.89-85.75-.71-9-5.91-40-6.75-44.75A521.51,521.51,0,0,0,288.78,298a84.3,84.3,0,0,1,9.66,2.18C307.87,303.27,330.82,315.95,328.51,373.79Z"></path></g><g class="cls-25"><path class="cls-26" d="M306.6,303.41l-12.45-5.21s4.33,14.42,10.67,36.22c5.39,18.53,8.61,62.65,8.61,62.65L320,342.29l-9.39-7.2,7.4-6.72Z"></path></g><path class="cls-21" d="M332.09,373.61l6.06,105c-.41.45-4.64,5.53-18.91,6.25,0,0-3.13-54-5.81-87.75-.71-9-2-16.22-2.46-21-3.47-35.76-18-77.92-18-77.92a63.66,63.66,0,0,1,8.33,2.16C310.72,303.39,334.39,315.77,332.09,373.61Z"></path><path class="cls-24" d="M302.54,300.5l-14.43-4.62s5,14.2,12.4,35.66c6.27,18.25,12.82,64.05,12.82,64.05l2.7-56.92-9.73-6.74,7.07-7.07Z"></path><circle class="cls-24" cx="319.13" cy="405.16" r="2.45" transform="translate(-19.98 16.57) rotate(-2.88)"></circle><circle class="cls-24" cx="320.78" cy="438.96" r="2.45" transform="translate(-21.59 16.63) rotate(-2.87)"></circle><g class="cls-25"><path class="cls-26" d="M239,311.34l10.19-6a190.45,190.45,0,0,1,21.24,45.29c7.6,24.42,14.16,51.06,14.16,51.06l-31.32-47.21,7.15-12.16-12.19-.11Z"></path></g><path class="cls-24" d="M238.63,310.78l11.15-7.66a187.05,187.05,0,0,1,21.91,45.8c7.6,24.42,12.9,52.75,12.9,52.75l-30.05-48.9,7.15-12.16-12.18-.11Z"></path><g class="cls-36"><path class="cls-26" d="M333.78,417.5c-5.33-.94-12.08-1.87-17.12-3.5-33.51-10.79-38-22.37-59.37-56.12-3.76-5.93-13.25-13.62-20-11.75-3.75,1-9.54,6.27-7.25,15.38,5.55,22,29.83,62.17,68,71.88,14.75,3.75,32.25,4.13,37.75,2.88Z"></path></g><path class="cls-21" d="M228.85,326.54c-3,2.51-5.37,16.09-2.7,25.09,6.06,20.47,29.7,59.24,57.7,71.58,19.67,8.67,53.5,13.17,79.17,10.17,0,0,14.76-1.62,16-13.33,1-9.33-12.5-11.33-12.5-11.33-.34.05-45.93,3.25-69.67-10.5-19-11-32.57-34.26-50.45-66.45C242,323.88,233.19,322.87,228.85,326.54Z"></path><ellipse class="cls-13" cx="364.67" cy="419.95" rx="12.65" ry="10.42"></ellipse><path class="cls-13" d="M248.74,256.66s6.39,2.07,16.84-.09,16-6.72,16-6.72.38,14.33-13.79,17.27C255.68,269.62,249.47,259.19,248.74,256.66Z"></path><path class="cls-37" d="M508.09,327.89c3.62,57.75-42.49,85.81-101.33,89.5S298.67,399,295.05,341.24,334.82,212,393.66,208.3,504.47,270.15,508.09,327.89Z"></path><path class="cls-38" d="M432.76,413.39c-58.83,3.69-105.82-29.39-109.15-76.15-3-41.42,21.25-93,55.42-118.49,1.4-1,4.57-1.86,4.25,1.5-.41,4.31-7.45,16.59-5,17.08S395,217.25,402.53,209.5c-2.08,0-6.76-1.33-8.87-1.2-58.84,3.69-102.22,75.2-98.61,132.94s52.87,79.83,111.71,76.15a180.21,180.21,0,0,0,29.83-4.28C435.32,413.21,434,413.31,432.76,413.39Z"></path><path class="cls-37" d="M447.21,165.29c-5.93,5.08-6.21-8.05-18.44-7.29s-13.4,9.74-20.5,6.5c-2-.89-9-11.5-20.5-10.5-11,1-15.67,11.37-17.5,12.5-6.64,4.1-8.5-6-16.5-4.5-12,2.25-1,16.63-15.5,12.5-10.5-3-19.77,2.47-16,6l46.5,36.75,52-4.75,44.8-45.65C468.88,162.88,457.71,156.29,447.21,165.29Z"></path><path class="cls-38" d="M374.28,202.25c-.74,4.11-27.55-25.34-36-27.75-10.5-3-19.77,2.47-16,6L369,217.25l13.25-1,8-2.25,33.5-2s-11.4-25.27-17-15.75c-7.5,12.75-14,9.4-16.25,7.5A112.65,112.65,0,0,1,375,187c-6.25-8-6.25-1.25-6.25-1.25Z"></path><path class="cls-13" d="M406.22,307.92l0-31.81c12.14,0,17.35,6.23,17.35,14.06h13.14c0-14.37-10.76-26.95-30.48-27v-9.64H393.12v9.64c-38.92.17-38.85,57.92,0,57.74l0,31.8c-10.8,0-16.26-6.44-16.25-14.06H363.65c0,14.13,10.91,27,29.39,27v9.63h13.14v-9.63C443.91,365.7,450.3,307.62,406.22,307.92ZM393.1,276.11l0,31.95C372,308.45,371.1,276.31,393.1,276.11Zm13.08,76.65,0-31.93C432.73,320.48,427.12,352.77,406.18,352.75Z"></path><g class="cls-39"><path class="cls-38" d="M462.16,395.23c-1.64-1.45-4.39,1.34-5.06,2.52-.25.44.19-1.06.5-4.19.24-2.4-3-2.32-4.44-.75a16.9,16.9,0,0,0-1.87,3.44c.88-4-2-4.4-2.75-4a4.84,4.84,0,0,0-2.87,3.5c-1,3.25-1.5,8.25-4.75,12.75a53.83,53.83,0,0,1-4.62,4.88c5.75-7.12,7.44-16.05,7.25-16.5-.95-2.28-4.5.13-6.37,4-3.32,6.87-6.59,9.51-7.25,10.06-3.84,3.21-10.37,5.44-10.37,5.44,6.38,3.5,23.09,4.31,31-.22C462.63,409.25,463.21,396.17,462.16,395.23Z"></path></g><g class="cls-39"><path class="cls-38" d="M394,406.66a23,23,0,0,0,3.43-7.79c.46-2.25-3.23-1.79-4.2-.27a81.44,81.44,0,0,1-7.4,10.26s5.42-9.24,6.59-13.25c.63-2.13-.37-2.25-1.43-2.41a4.92,4.92,0,0,0-4.15,2.9c-.3.62-4,9.26-9,12.81a54.83,54.83,0,0,0,4.64-13.29c.47-3-3.14-3.85-4.72.49C373.9,406.75,368,411.25,365,411.88a2.86,2.86,0,0,1-1.89,0c-2.55-1.2-5.74-7.34-9.11-12.46s-8.75-.5-8.75-.5,5.88,5.13,7.75,10.88c2.11,6.48,1.94,9.33,1.94,9.33,3,8.56,11.54,10.31,25.24,4.49,13-5.52,18.6-17.09,18.57-18.32,0-1-.85-2.25-1.75-1.62A21.71,21.71,0,0,0,394,406.66Z"></path></g><path class="cls-1" d="M437.54,205.45a3.14,3.14,0,0,1-2.43,3.72l-76.21,12a3.11,3.11,0,1,1-1.34-6.08l76.21-12A3.14,3.14,0,0,1,437.54,205.45Z"></path><g class="cls-40"><g class="cls-41"><g class="cls-18"><rect class="cls-2" x="353.4" y="214.27" width="29.64" height="3.09" transform="translate(-23.36 385.58) rotate(-53.81)"></rect></g><g class="cls-18"><rect class="cls-2" x="367.76" y="212.04" width="29.64" height="3.09" transform="translate(-15.69 396.25) rotate(-53.81)"></rect></g><g class="cls-18"><rect class="cls-2" x="382.11" y="209.82" width="29.64" height="3.09" transform="translate(-8.01 406.94) rotate(-53.81)"></rect></g><g class="cls-18"><rect class="cls-2" x="396.47" y="207.59" width="29.64" height="3.09" transform="translate(-0.34 417.6) rotate(-53.81)"></rect></g><g class="cls-18"><rect class="cls-2" x="410.83" y="205.36" width="29.63" height="3.09" transform="translate(7.33 428.27) rotate(-53.81)"></rect></g></g></g><path class="cls-2" d="M433.67,211.74a3.14,3.14,0,0,1-2.92,3.35l-77.14,1.4a3.11,3.11,0,1,1-.48-6.2l77.14-1.4A3.15,3.15,0,0,1,433.67,211.74Z"></path><g class="cls-42"><g class="cls-43"><g class="cls-18"><rect class="cls-2" x="348.76" y="210.88" width="29.64" height="3.09" transform="translate(-42.04 325.51) rotate(-45.87)"></rect></g><g class="cls-18"><rect class="cls-2" x="363.29" y="210.66" width="29.64" height="3.09" transform="translate(-37.48 335.84) rotate(-45.87)"></rect></g><g class="cls-18"><rect class="cls-2" x="377.81" y="210.44" width="29.64" height="3.09" transform="translate(-32.91 346.18) rotate(-45.87)"></rect></g><g class="cls-18"><rect class="cls-2" x="392.34" y="210.22" width="29.64" height="3.09" transform="translate(-28.31 356.62) rotate(-45.88)"></rect></g><g class="cls-18"><rect class="cls-2" x="406.87" y="210" width="29.63" height="3.09" transform="translate(-23.76 366.94) rotate(-45.87)"></rect></g></g></g><path class="cls-44" d="M461.78,397.31c-1.64-1.45-3.47.63-3.81,1.94a24.23,24.23,0,0,1-3.81,8.5s4.56-10,4.06-13.81c-.25-1.94-4.12-1-5.19,2.06-2.74,7.89-4.19,9.56-4.19,9.56s2.46-6,2.81-10.56c.18-2.32-2-1.65-2.75-1.25-1.28.68-2.25,1.63-3,4.38a57.37,57.37,0,0,1-2.52,7.62c-3,6.38-4.49,5.45-4.5,5.44,5.19-7.62,5.63-13.44,5.38-13.69-1.75-1.75-4.29-.5-6,3.88-2.87,7.38-6.68,9.6-7.37,10.13a23.74,23.74,0,0,1-11.47,4.66c4.38,5.75,22.31,6.65,30.24,2.12C461.75,411.37,462.84,398.24,461.78,397.31Z"></path><path class="cls-44" d="M395.22,407.54a23,23,0,0,0,3.43-7.79c.46-2.25-3.23-1.79-4.2-.27a81.44,81.44,0,0,1-7.4,10.26s5.42-9.24,6.59-13.25c.63-2.13-.37-2.25-1.43-2.41a4.92,4.92,0,0,0-4.15,2.9c-.3.62-4,9.26-9,12.81a54.83,54.83,0,0,0,4.64-13.29c.47-3-3.14-3.85-4.72.49-3.87,10.63-9.81,15.13-12.75,15.75a2.86,2.86,0,0,1-1.89,0c-2.55-1.2-5.74-7.34-9.11-12.46s-7.37-.37-7.37-.37a18.87,18.87,0,0,1,6.38,10.75c1.31,6.68,1.94,9.33,1.94,9.33,3,8.56,11.54,10.31,25.24,4.49,13-5.52,18.6-17.09,18.57-18.32,0-1-.85-2.25-1.75-1.62A21.71,21.71,0,0,0,395.22,407.54Z"></path></g></g></svg>